<?xml version="1.0" encoding="UTF-8"?>
<svg version="1.1" xmlns="http://www.w3.org/2000/svg" width="512" height="512">
<path d="M0 0 C1.70202324 -0.00744736 1.70202324 -0.00744736 3.43843079 -0.01504517 C7.17119975 -0.02958078 10.90392619 -0.03645535 14.63671875 -0.04199219 C15.92012146 -0.04481956 17.20352417 -0.04764694 18.52581787 -0.05056 C24.62283881 -0.06398267 30.71984102 -0.07388622 36.81687546 -0.07776189 C43.80266323 -0.08222958 50.78825407 -0.09972893 57.77398205 -0.12876248 C63.86669697 -0.15318583 69.95933209 -0.16071595 76.05209351 -0.16243744 C78.6226 -0.16544171 81.19310612 -0.1733938 83.76358032 -0.18662262 C100.69982702 -0.2675455 117.01624217 0.11534885 133.19921875 5.72363281 C133.9255249 5.97121338 134.65183105 6.21879395 135.40014648 6.47387695 C148.0198754 10.99833735 168.44964786 18.92453395 174.57421875 31.78613281 C175.85275074 37.53952676 175.3144458 42.21735378 172.63671875 47.47363281 C169.39951169 51.23579237 166.85670689 53.74036227 161.80859375 54.57910156 C154.6313362 54.94999336 150.1913945 53.08976894 144.32421875 49.16113281 C123.08598663 35.43173839 102.73320573 33.69020616 78.015625 33.72753906 C76.03176508 33.72412748 74.04790498 33.72070579 72.06404728 33.71618599 C65.84107403 33.70222049 59.61823831 33.70363519 53.39526367 33.71508789 C47.01946134 33.72656403 40.64407994 33.71248394 34.26833302 33.68569142 C28.75190869 33.66339572 23.23561515 33.65692787 17.71914905 33.66276783 C14.44296937 33.66610544 11.16711498 33.66217797 7.8909626 33.6465168 C-11.74526159 33.53468359 -11.74526159 33.53468359 -30.67578125 38.16113281 C-32.30784767 38.74339378 -32.30784767 38.74339378 -33.97288513 39.3374176 C-53.90543982 46.74189999 -69.19667857 61.9718736 -78.5234375 80.77441406 C-84.29687514 93.52704412 -86.17411408 105.73906054 -86.05078125 119.72363281 C-86.06238281 121.04298828 -86.07398438 122.36234375 -86.0859375 123.72167969 C-86.04962552 135.9406618 -84.04683021 145.73195696 -77.67578125 156.16113281 C-77.37800781 156.86238281 -77.08023438 157.56363281 -76.7734375 158.28613281 C-75.38117427 160.66437605 -74.19395098 161.10849249 -71.67578125 162.16113281 C-70.92941406 162.56332031 -70.18304688 162.96550781 -69.4140625 163.37988281 C-55.19748237 170.88880114 -39.74001207 170.31127689 -23.99072266 170.28710938 C-22.46323597 170.28850804 -20.93574967 170.29040987 -19.40826416 170.29277039 C-16.1470674 170.29722823 -12.8858831 170.29912258 -9.62468338 170.29923248 C-4.46332932 170.30038281 0.69795488 170.31329 5.85928345 170.32879639 C6.7339666 170.33136924 7.60864976 170.33394209 8.50983846 170.33659291 C10.2966093 170.34185788 12.08338008 170.34714336 13.8701508 170.35244894 C25.86673377 170.38745831 37.86322478 170.41410184 49.85986328 170.41162109 C57.9817402 170.41003201 66.10337377 170.42606682 74.22517264 170.46232772 C78.51387117 170.48075647 82.80216329 170.49015607 87.09089279 170.47785187 C91.11808874 170.46640559 95.14455481 170.47814024 99.17165375 170.50748634 C100.64581356 170.51411635 102.12004042 170.51227811 103.59417343 170.50118828 C117.43399613 170.40572833 117.43399613 170.40572833 123.32421875 176.16113281 C126.41151015 180.44350476 126.90558973 184.46713477 126.7421875 189.62597656 C125.89400186 194.77057917 123.34506943 198.68204836 119.16346264 201.7426157 C115.66238877 203.49179027 113.22238464 203.54115705 109.31428528 203.54881287 C108.27337086 203.55689117 108.27337086 203.55689117 107.21142787 203.56513268 C104.89182812 203.57941104 102.57279921 203.57230873 100.25317383 203.56518555 C98.58707725 203.57088983 96.92098458 203.57785431 95.25489807 203.58598328 C90.72928025 203.60394017 86.20385612 203.60273952 81.67821336 203.59704089 C77.88951945 203.59394744 74.10086265 203.60004445 70.31217402 203.60607964 C61.35790558 203.6201365 52.40373247 203.61855874 43.44946289 203.60717773 C34.25024315 203.59574271 25.05131652 203.60969141 15.85213548 203.63657421 C7.93077902 203.65884569 0.00951376 203.66534159 -7.91187173 203.6594978 C-12.63190832 203.65614848 -17.35175788 203.65840475 -22.07176781 203.67574883 C-26.52474651 203.69139511 -30.97729869 203.68706997 -35.43026161 203.66844368 C-37.0497747 203.66480361 -38.66932061 203.66772933 -40.2888031 203.67832947 C-54.47056987 203.76393788 -69.61525857 202.37415591 -82.23828125 195.34863281 C-83.21764648 194.82934204 -83.21764648 194.82934204 -84.21679688 194.29956055 C-89.47831037 191.43648573 -94.28573227 188.25968961 -98.67578125 184.16113281 C-99.68318359 183.23300781 -99.68318359 183.23300781 -100.7109375 182.28613281 C-116.94874972 165.76674003 -119.93168157 142.17499847 -119.92456055 120.13256836 C-119.83276274 109.88621562 -118.97482858 100.14497984 -116.67578125 90.16113281 C-116.51480957 89.45520996 -116.35383789 88.74928711 -116.18798828 88.02197266 C-109.10047372 58.31704852 -91.76530945 33.62912789 -66.3359375 16.97363281 C-46.38309731 4.90593566 -23.11804244 0.02452632 0 0 Z " fill="#000000" transform="translate(188.67578125,260.8388671875)"/>
<path d="M0 0 C1.76380005 0.01135986 1.76380005 0.01135986 3.56323242 0.02294922 C28.71758176 0.49589863 50.77800542 10.95796571 68.33886719 28.90576172 C85.92423599 47.99410149 92.67528544 72.45574941 91.88623047 97.98486328 C90.51470959 122.67715499 77.93237326 145.11920198 59.75 161.4375 C40.96005905 176.90382618 16.86024801 183.9534138 -7.25 182.4375 C-29.7429397 180.1818069 -48.05108129 171.13933998 -64.25 155.4375 C-65.16652344 154.63119141 -65.16652344 154.63119141 -66.1015625 153.80859375 C-81.18819005 140.06529605 -89.58727864 117.69174265 -90.6328125 97.65234375 C-91.45810019 69.69991678 -83.54011074 47.2911228 -64.453125 26.7109375 C-47.41140636 9.12533422 -24.41977782 -0.22291473 0 0 Z M-41.49609375 50.45703125 C-53.059839 62.24619064 -57.63203693 77.48799958 -57.6237793 93.56396484 C-57.45078981 100.67346483 -55.95088852 106.84625881 -53.25 113.4375 C-52.92257813 114.29472656 -52.59515625 115.15195313 -52.2578125 116.03515625 C-46.47401048 129.35478792 -34.27594339 139.49396371 -21.25 145.25 C-6.34936975 151.0277954 8.33444793 150.89451755 23.26171875 145.06640625 C38.14663043 138.23801442 48.6153538 127.4808767 55.0625 112.3125 C60.39786322 97.6803236 60.18907933 83.11820083 54.75 68.4375 C47.20596766 52.33719807 35.24307938 41.79057438 18.75 35.4375 C16.09764386 34.52854649 13.51489471 33.89657686 10.75 33.4375 C9.94304687 33.3034375 9.13609375 33.169375 8.3046875 33.03125 C-11.05885814 30.54729662 -27.33153533 37.72124568 -41.49609375 50.45703125 Z " fill="#000000" transform="translate(234.25,47.5625)"/>
<path d="M0 0 C3.68807589 2.6217409 5.39998447 6.08667215 6.796875 10.27734375 C6.88066128 12.56119545 6.90417415 14.84744475 6.89453125 17.1328125 C6.8931163 17.79444901 6.89170135 18.45608551 6.89024353 19.13777161 C6.88465496 21.24684203 6.87210465 23.35580552 6.859375 25.46484375 C6.85435852 26.89648284 6.84979587 28.3281236 6.84570312 29.75976562 C6.8346893 33.26565963 6.81743255 36.77149125 6.796875 40.27734375 C7.6940625 40.25115967 8.59125 40.22497559 9.515625 40.19799805 C12.87793345 40.11224702 16.23906294 40.04984434 19.60205078 40.00268555 C21.05113174 39.97770139 22.50008875 39.94370106 23.94873047 39.90014648 C38.74152232 39.46686347 38.74152232 39.46686347 44.38061523 43.86621094 C47.32896893 46.8038914 48.61488551 49.05916187 49.23046875 53.1796875 C49.23843137 59.36664144 49.19665089 63.52082928 44.796875 68.27734375 C39.61859127 73.0672562 35.97973988 73.40533877 29.0625 73.375 C27.76699219 73.37177734 26.47148437 73.36855469 25.13671875 73.36523438 C23.77343683 73.35687973 22.41015558 73.34841479 21.046875 73.33984375 C19.66797035 73.33482543 18.28906396 73.3302631 16.91015625 73.32617188 C13.53901841 73.31438468 10.16796872 73.2979301 6.796875 73.27734375 C6.81258545 74.15471191 6.8282959 75.03208008 6.84448242 75.93603516 C6.89581876 79.21246327 6.93332497 82.48845973 6.96166992 85.76513672 C6.97669325 87.17926812 6.99711805 88.59335343 7.02319336 90.00732422 C7.05986454 92.04796772 7.07666536 94.08799167 7.08984375 96.12890625 C7.1055542 97.35432129 7.12126465 98.57973633 7.13745117 99.84228516 C6.69794603 104.27514345 5.31719666 107.64870401 2.26171875 110.921875 C-3.93683826 115.66194801 -8.43015835 116.15205099 -16.203125 115.27734375 C-21.66186996 113.07102174 -23.92752077 109.61452883 -26.203125 104.27734375 C-26.54370117 100.75048828 -26.54370117 100.75048828 -26.49609375 96.91015625 C-26.49184891 96.23056854 -26.48760406 95.55098083 -26.48323059 94.85079956 C-26.46656766 92.70089451 -26.42894216 90.55196076 -26.390625 88.40234375 C-26.375562 86.93621155 -26.36187643 85.47006451 -26.34960938 84.00390625 C-26.3167058 80.428075 -26.26501163 76.85280434 -26.203125 73.27734375 C-27.5034668 73.30876465 -27.5034668 73.30876465 -28.83007812 73.34082031 C-32.0803629 73.40943937 -35.33027557 73.45935826 -38.58105469 73.49707031 C-39.98156973 73.51705005 -41.38200282 73.54424395 -42.78222656 73.57910156 C-57.39045233 73.93336667 -57.39045233 73.93336667 -64.203125 69.27734375 C-68.37227157 64.03918524 -69.75039924 59.95408953 -69.203125 53.27734375 C-67.39319888 48.00495028 -64.96860118 44.33213618 -60.203125 41.27734375 C-56.66486245 40.0979229 -53.86163774 40.16445186 -50.12890625 40.1796875 C-49.10315742 40.18180992 -49.10315742 40.18180992 -48.0566864 40.18397522 C-45.87628778 40.18956499 -43.69599249 40.20211553 -41.515625 40.21484375 C-40.03580878 40.21986008 -38.55599094 40.22442275 -37.07617188 40.22851562 C-33.45178943 40.23953104 -29.8274673 40.25678863 -26.203125 40.27734375 C-26.21883545 39.36968262 -26.2345459 38.46202148 -26.25073242 37.52685547 C-26.3020563 34.13861303 -26.33956916 30.75078756 -26.36791992 27.36230469 C-26.38294696 25.899673 -26.40337455 24.43708593 -26.42944336 22.97460938 C-26.46609767 20.86447095 -26.48291176 18.75493149 -26.49609375 16.64453125 C-26.5118042 15.37722168 -26.52751465 14.10991211 -26.54370117 12.80419922 C-26.05688121 7.76290803 -24.49484482 4.50107831 -20.828125 1.02734375 C-13.79655114 -3.66037216 -7.44410513 -4.05386345 0 0 Z " fill="#000000" transform="translate(415.203125,348.72265625)"/>
</svg>
