<?xml version="1.0" encoding="UTF-8"?>
<svg version="1.1" xmlns="http://www.w3.org/2000/svg" width="650" height="650">
<path d="M0 0 C19.43474842 16.29315676 32.37865 36.74232886 34.73120117 62.55761719 C36.29357963 85.69885602 30.35262498 108.70918029 15.2578125 126.6640625 C10.35034434 132.25241421 5.07243665 137.99026439 -1 142.3125 C-1.66 142.3125 -2.32 142.3125 -3 142.3125 C-3 142.9725 -3 143.6325 -3 144.3125 C-1.57880859 144.43431641 -1.57880859 144.43431641 -0.12890625 144.55859375 C4.93634087 145.28983078 9.40487754 147.32987072 14.0625 149.375 C14.9913501 149.77984619 15.9202002 150.18469238 16.87719727 150.60180664 C34.91887562 158.60279005 50.48537908 169.28340067 64.61914062 182.98291016 C65.79570007 184.11578546 66.99699623 185.22287777 68.203125 186.32421875 C82.75847673 199.96246499 92.70970484 218.24283141 98 237.3125 C98.18618896 237.97548096 98.37237793 238.63846191 98.56420898 239.3215332 C100.20997865 245.79264978 100.33249997 252.09801118 100.3125 258.75 C100.32861328 259.81798828 100.34472656 260.88597656 100.36132812 261.98632812 C100.36869658 274.04848964 97.18981123 284.41036923 89.03125 293.5078125 C65.35956851 316.06452348 25.55033249 312.78265606 -4.76911354 312.71547651 C-9.36622221 312.7077472 -13.9633152 312.71496155 -18.5604248 312.71963501 C-26.2725757 312.72505472 -33.98463971 312.71800156 -41.69677734 312.70361328 C-50.54461938 312.68729417 -59.39225383 312.69258538 -68.24009085 312.7090925 C-75.91054322 312.7228165 -83.58093403 312.72457435 -91.25139475 312.71677649 C-95.80027562 312.71215927 -100.34905976 312.7113069 -104.89793396 312.72138596 C-175.70715721 312.85685488 -175.70715721 312.85685488 -196 294.125 C-206.12133101 283.04242526 -208.62514245 270.04235652 -208.24609375 255.5234375 C-206.89807739 226.48408015 -191.1005056 201.3823178 -171 181.3125 C-167.45283173 178.1466915 -163.76672798 175.21158167 -160 172.3125 C-159.07574219 171.57257813 -158.15148437 170.83265625 -157.19921875 170.0703125 C-146.52171377 161.71902985 -134.87627013 155.45640322 -122.5625 149.875 C-121.84175293 149.54491943 -121.12100586 149.21483887 -120.37841797 148.87475586 C-115.35532682 146.66798989 -110.38855163 145.32142366 -105 144.3125 C-107.25636485 141.98334919 -109.49284356 139.73579593 -111.984375 137.65625 C-127.00668914 125.08438427 -137.78280616 106.73056284 -141 87.3125 C-141.18046875 86.23355469 -141.3609375 85.15460938 -141.546875 84.04296875 C-144.53226629 59.46496289 -138.95588895 36.11013977 -124 16.3125 C-109.41388604 -2.17210456 -89.29418925 -13.83548195 -66.0625 -17.26953125 C-42.5462889 -19.96315495 -18.94318575 -14.6175764 0 0 Z M-107.25 24.625 C-119.60924926 39.25895771 -125.08493441 57.15320778 -124.17919922 76.20068359 C-122.58475775 94.99076353 -113.49618277 112.48541477 -99.1875 124.75 C-91.30487552 130.83958115 -82.86449923 136.19996692 -74.53417969 141.64990234 C-70.67469805 144.18199001 -66.83664024 146.74598039 -63 149.3125 C-68.31593123 151.36131754 -73.6268275 153.16972157 -79.09375 154.765625 C-80.63554849 155.22481803 -82.17721073 155.68446875 -83.71875 156.14453125 C-86.09502042 156.85089805 -88.47199749 157.55431904 -90.8515625 158.24951172 C-127.0966451 168.86392658 -160.76286948 188.78323327 -180 222.3125 C-187.54195737 236.85608413 -193.05158359 254.18188496 -188.9375 270.5625 C-186.49566698 277.60537949 -182.0529188 282.46763841 -175.5625 286.0625 C-152.44072562 296.40461896 -125.70834562 294.61885058 -100.98670197 294.58115101 C-96.55672473 294.57601828 -92.12675498 294.58080234 -87.69677734 294.58392334 C-80.26333099 294.58754211 -72.82992463 294.5828192 -65.39648438 294.57324219 C-56.85372143 294.56236171 -48.31105402 294.56588877 -39.76829338 294.576895 C-32.37828198 294.58602789 -24.988299 294.58722406 -17.59828377 294.58201766 C-13.20879683 294.57893069 -8.81935451 294.57839684 -4.42987061 294.58509064 C37.91948025 296.46208008 37.91948025 296.46208008 75.671875 280.875 C81.32474911 274.75659509 82.54266092 267.21347524 82.4375 259.25 C82.42396484 258.00609497 82.42396484 258.00609497 82.41015625 256.73706055 C81.75930425 233.20921257 68.64669162 213.90314194 53 197.3125 C52.44957031 196.70921875 51.89914062 196.1059375 51.33203125 195.484375 C26.36968007 169.10440882 -9.34691172 159.96121291 -43 150.3125 C-43 149.6525 -43 148.9925 -43 148.3125 C-41.19062252 146.94265354 -39.31209001 145.66391459 -37.41015625 144.42578125 C-36.8322081 144.04568405 -36.25425995 143.66558685 -35.65879822 143.27397156 C-33.79759851 142.05103679 -31.93056075 140.83742362 -30.0625 139.625 C-8.49115274 125.57184723 9.54245203 111.20279332 15.54199219 84.93994141 C18.82735629 66.09287933 15.24647762 47.35740365 5 31.3125 C1.73037668 26.91621493 -2.06423714 23.10832463 -6 19.3125 C-6.94939453 18.31669922 -6.94939453 18.31669922 -7.91796875 17.30078125 C-19.58610819 5.83870166 -37.46878468 0.54349255 -53.375 0 C-74.60983156 0.22542284 -92.73207565 9.24490006 -107.25 24.625 Z " fill="#3D3D3D" transform="translate(308,199.6875)"/>
<path d="M0 0 C0.99 0.7425 1.98 1.485 3 2.25 C21.27734199 17.80088766 29.73651265 40.83537419 32 64 C33.77176502 88.326615 25.09893578 110.51566749 10.171875 129.25 C7.95151829 131.9856397 7.95151829 131.9856397 6 135 C7.0415625 135.46148437 8.083125 135.92296875 9.15625 136.3984375 C24.10640694 143.14904353 37.66324117 151.10283341 50 162 C50.98613281 162.85335937 51.97226562 163.70671875 52.98828125 164.5859375 C73.42746055 182.55108857 90.90268184 208.37354758 93.27050781 236.17626953 C94.2416472 254.83679415 92.88220213 270.2318893 80.33203125 284.95703125 C61.9940922 302.89015928 32.98310555 304.08314083 9 305 C7.7937748 301.38132441 7.89183082 298.07493749 7.9375 294.3125 C7.94201172 293.61060547 7.94652344 292.90871094 7.95117188 292.18554688 C7.96293073 290.45699462 7.98086546 288.72848635 8 287 C9.10118164 286.89510254 9.10118164 286.89510254 10.22460938 286.78808594 C40.61338568 284.74463899 40.61338568 284.74463899 67.09765625 271.0859375 C72.91372999 263.91230355 74.55089218 255.39322186 74.4375 246.375 C74.42847656 245.50327148 74.41945313 244.63154297 74.41015625 243.73339844 C73.78284195 219.97386926 60.05395557 197.84148137 43.53613281 181.44970703 C25.13018219 164.07931053 2.95403217 153.37815257 -21 146 C-22.34122622 145.58098639 -23.68237552 145.16172647 -25.0234375 144.7421875 C-28.01193151 143.81517092 -31.00330196 142.90006832 -34 142 C-34 141.34 -34 140.68 -34 140 C-32.41455078 138.72241211 -32.41455078 138.72241211 -30.1953125 137.27734375 C-29.38884277 136.74367188 -28.58237305 136.21 -27.75146484 135.66015625 C-26.45136475 134.80744141 -26.45136475 134.80744141 -25.125 133.9375 C-6.66854725 121.51285714 6.63473847 107.18225685 11.52758789 84.82641602 C15.13413843 66.00748257 11.83377938 47.53011487 2 31 C-1.52320233 25.87109041 -5.43262082 21.23318071 -10 17 C-10.51433594 16.48050781 -11.02867187 15.96101563 -11.55859375 15.42578125 C-24.58540945 2.9592587 -43.17321937 -3.16857476 -61 -3 C-80.85226932 -1.7994308 -97.45350254 5.42918225 -112 19 C-114.51665529 21.88366753 -116.8211795 24.85446733 -119 28 C-122.89006773 26.61219205 -125.96558708 24.7847773 -129.3125 22.375 C-130.19550781 21.74335938 -131.07851563 21.11171875 -131.98828125 20.4609375 C-132.65214844 19.97882813 -133.31601562 19.49671875 -134 19 C-132.51956286 10.03513062 -122.82617764 2.308018 -116 -3 C-112.43575765 -5.52825022 -108.77926011 -7.80792574 -105 -10 C-104.10925781 -10.5259375 -103.21851563 -11.051875 -102.30078125 -11.59375 C-69.76078216 -29.38409818 -27.784291 -24.04291848 0 0 Z " fill="#3D3D3D" transform="translate(419,146)"/>
<path d="M0 0 C11 11.07670851 11 11.07670851 11 16 C8.90412914 17.70916793 6.87014575 19.20257765 4.625 20.6875 C4.02171875 21.10322266 3.4184375 21.51894531 2.796875 21.94726562 C-1.71455511 25 -1.71455511 25 -4 25 C-5.1518768 23.57904962 -6.24520389 22.11052992 -7.3125 20.625 C-18.81959939 5.93420041 -36.20612856 -2.72017954 -54.47265625 -5.53515625 C-74.86757262 -7.53555955 -94.0532125 -1.51268731 -110.3125 10.8125 C-125.69324439 23.75027364 -134.10265999 42.20968965 -136 62 C-136.0721875 62.73089844 -136.144375 63.46179688 -136.21875 64.21484375 C-137.09309337 83.19538111 -129.44408797 101.97993378 -117 116 C-109.50565902 123.75319157 -100.73107498 129.40808208 -91.640625 135.10546875 C-90.76921875 135.73066406 -89.8978125 136.35585938 -89 137 C-89 137.66 -89 138.32 -89 139 C-89.69335449 139.20044922 -90.38670898 139.40089844 -91.10107422 139.60742188 C-116.45083882 146.99988092 -139.55716216 155.91042146 -160 173 C-160.51836426 173.43183594 -161.03672852 173.86367188 -161.57080078 174.30859375 C-179.34604836 189.32647764 -195.04927258 211.69056374 -197.22119141 235.41625977 C-197.79196704 247.60778431 -197.80351886 258.90618038 -189.42114258 268.59912109 C-175.42580143 282.39490661 -149.02641727 282.28282153 -131 284 C-130.97301578 286.43757413 -130.95316901 288.87484915 -130.9375 291.3125 C-130.92912109 292.00279297 -130.92074219 292.69308594 -130.91210938 293.40429688 C-130.89692094 296.5483025 -130.99806673 298.99420019 -132 302 C-156.37636815 301.25509518 -184.32162183 299.66550988 -203.15625 282.02734375 C-215.34041746 268.62992232 -216.93690313 253.89332953 -216.44140625 236.52734375 C-214.87783923 206.55825007 -196.59028523 179.65654396 -174.83691406 160.04467773 C-161.41425067 148.39502071 -145.71251136 138.21705423 -129 132 C-129.51046875 131.32517578 -129.51046875 131.32517578 -130.03125 130.63671875 C-131.07748941 129.24822549 -132.11861438 127.85587218 -133.15625 126.4609375 C-134.41045571 124.78689174 -135.68206044 123.12577174 -136.96875 121.4765625 C-151.20241495 102.80856347 -157.27935576 79.02250812 -154.53515625 55.74609375 C-151.19420502 31.13388685 -139.64117387 9.72521456 -120.05078125 -5.80078125 C-83.07615088 -32.45470814 -33.78608808 -31.08621284 0 0 Z " fill="#3D3D3D" transform="translate(216,149)"/>
</svg>
